<!--?xml version="1.0" encoding="UTF-8"?-->

<svg width="70px" height="70px"
     viewBox="0 0 70 70" version="1.1" xmlns="http://www.w3.org/2000/svg"
     xmlns:xlink="http://www.w3.org/1999/xlink">
  <!-- Generator: Sketch 52.2 (67145) - http://www.bohemiancoding.com/sketch -->
  <title>Logo RTE</title>
  <desc>Created with Sketch.</desc>
  <defs>
    <polygon id="path-1" points="0.000122807018 0.377385965 69.6229825 0.377385965 69.6229825 70 0.000122807018 70"></polygon>
  </defs>
  <g id="Symbols" stroke="none" stroke-width="1" fill="none" fill-rule="evenodd">
    <g id="HEADER/D/FILTRE" transform="translate(-101.000000, -16.000000)">
      <g id="Logo-RTE" transform="translate(101.000000, 16.000000)">
        <g>
          <g id="Grouper">
            <mask id="mask-2" fill="white">
              <use xlink:href="#path-1"></use>
            </mask>
            <g id="Clip-2"></g>
            <path d="M69.6231053,35.1882632 C69.6231053,54.4137018 54.0376667,70.0003684 34.811,70.0003684 C15.5855614,70.0003684 0.000122807018,54.4137018 0.000122807018,35.1882632 C0.000122807018,15.9628246 15.5855614,0.377385965 34.811,0.377385965 C54.0376667,0.377385965 69.6231053,15.9628246 69.6231053,35.1882632" id="Fill-1" fill="#00ADDF"></path>
          </g>
          <path d="M45.5114541,33.5014463 C45.8647997,31.5726931 47.7579886,29.9540483 49.9549307,29.9540483 C52.150633,29.9540483 54.1678027,31.4656752 54.4864337,33.5014463 L45.5114541,33.5014463 Z M21.8248971,33.5014463 L17.3839002,33.5014463 L17.3839002,25.9335829 L21.8248971,25.9335829 C23.9561294,25.9335829 25.6807041,27.6264105 25.6807041,29.7144743 C25.6807041,31.8061865 23.9561294,33.5014463 21.8248971,33.5014463 Z M49.9623695,27.0159224 C46.116481,27.0159224 42.8446243,29.8579755 42.3660579,33.5002302 L36.6183019,33.5002302 L36.6183019,28.4691759 C36.6183019,27.665326 35.9190494,27.0110579 35.1007753,27.0110579 C34.2750623,27.0110579 33.5844885,27.665326 33.5844885,28.4691759 L33.5844885,33.5014463 L27.3023747,33.5002302 C28.1367664,32.5419341 28.6475678,31.1202995 28.6475678,29.721771 C28.6475678,26.0187107 25.5877184,23.0136986 21.8100194,23.0136986 L15.8713328,23.0136986 C15.0530587,23.0136986 14.3835616,23.659454 14.3835616,24.4754649 L14.3835616,42.6526872 C14.3835616,43.4601854 15.0480994,44.109589 15.8713328,44.109589 C16.6945662,44.109589 17.359104,43.4601854 17.359104,42.6526872 L17.359104,36.4176823 L22.9208886,36.4176823 L28.145445,43.5063976 C28.43804,43.9004178 28.8918102,44.109589 29.3554989,44.109589 C29.6580124,44.109589 29.9605259,44.0195968 30.2221256,43.8335317 C30.8866634,43.3616803 31.0379202,42.4483804 30.5556343,41.7977606 L26.5932038,36.4176823 L33.5844885,36.4176823 C33.5795293,36.7837319 33.5844885,39.8410368 33.5844885,39.8410368 C33.5844885,42.3644687 35.4553607,44.087699 37.9089434,44.087699 L38.7991265,44.087699 C39.6310385,44.087699 40.2980559,43.423702 40.2980559,42.6101233 C40.2980559,41.801409 39.6310385,41.1325475 38.7991265,41.1325475 L37.9089434,41.1325475 C37.1923336,41.1325475 36.6207815,40.539085 36.6207815,39.7765829 L36.6207815,36.4176823 L42.3164655,36.4176823 C42.3164655,40.7652817 45.8028093,44.087699 50.0156813,44.087699 L55.5824252,44.087699 C56.4081382,44.087699 57.1185489,43.4188376 57.1185489,42.6101233 C57.1185489,41.7989767 56.4540111,41.1325475 55.6245787,41.1325475 L50.0466766,41.1325475 C47.4591945,41.1325475 45.4122693,39.1733915 45.4122693,36.4176823 L55.9320514,36.4176823 C56.8023975,36.4176823 57.533885,35.619913 57.533885,34.7430964 C57.5747987,30.2544279 54.1380473,27.0159224 49.9623695,27.0159224 Z" id="Fill-3" fill="#FEFEFE"></path>
        </g>
      </g>
    </g>
  </g>
</svg>
